<svg version="1.1" xmlns="http://www.w3.org/2000/svg" viewBox="0 0 3701.5460325842146 3680.0001525878897" width="3701.5460325842146" height="3680.0001525878897">
  <!-- svg-source:excalidraw -->
  
  <defs>
    <style class="style-fonts">
      @font-face {
        font-family: "Virgil";
        src: url("https://excalidraw.com/Virgil.woff2");
      }
      @font-face {
        font-family: "Cascadia";
        src: url("https://excalidraw.com/Cascadia.woff2");
      }
    </style>
    
  </defs>
  <rect x="0" y="0" width="3701.5460325842146" height="3680.0001525878897" fill="#ffffff"></rect><g stroke-linecap="round" transform="translate(10 1345.741286430317) rotate(0 311.86425410135183 360.2509265306494)"><path d="M32 0 M32 0 C209.58 0, 387.15 0, 591.73 0 M32 0 C192.07 0, 352.13 0, 591.73 0 M591.73 0 C613.06 0, 623.73 10.67, 623.73 32 M591.73 0 C613.06 0, 623.73 10.67, 623.73 32 M623.73 32 C623.73 178.6, 623.73 325.2, 623.73 688.5 M623.73 32 C623.73 274.81, 623.73 517.61, 623.73 688.5 M623.73 688.5 C623.73 709.84, 613.06 720.5, 591.73 720.5 M623.73 688.5 C623.73 709.84, 613.06 720.5, 591.73 720.5 M591.73 720.5 C420.87 720.5, 250.01 720.5, 32 720.5 M591.73 720.5 C367.89 720.5, 144.05 720.5, 32 720.5 M32 720.5 C10.67 720.5, 0 709.84, 0 688.5 M32 720.5 C10.67 720.5, 0 709.84, 0 688.5 M0 688.5 C0 498.04, 0 307.58, 0 32 M0 688.5 C0 548.85, 0 409.2, 0 32 M0 32 C0 10.67, 10.67 0, 32 0 M0 32 C0 10.67, 10.67 0, 32 0" stroke="#1e1e1e" stroke-width="1" fill="none"></path></g><g transform="translate(308.00365600642965 1411.1567279837304) rotate(0 46.583984375 45)"><text x="0" y="0" font-family="Virgil, Segoe UI Emoji" font-size="36px" fill="#1e1e1e" text-anchor="start" style="white-space: pre;" direction="ltr" dominant-baseline="text-before-edge">user </text><text x="0" y="45" font-family="Virgil, Segoe UI Emoji" font-size="36px" fill="#1e1e1e" text-anchor="start" style="white-space: pre;" direction="ltr" dominant-baseline="text-before-edge"></text></g><g transform="translate(91.40585509534719 1519.4557033013025) rotate(0 266.97589111328125 247.5)"><text x="0" y="0" font-family="Virgil, Segoe UI Emoji" font-size="36px" fill="#1e1e1e" text-anchor="start" style="white-space: pre;" direction="ltr" dominant-baseline="text-before-edge">id - primary key </text><text x="0" y="45" font-family="Virgil, Segoe UI Emoji" font-size="36px" fill="#1e1e1e" text-anchor="start" style="white-space: pre;" direction="ltr" dominant-baseline="text-before-edge"></text><text x="0" y="90" font-family="Virgil, Segoe UI Emoji" font-size="36px" fill="#1e1e1e" text-anchor="start" style="white-space: pre;" direction="ltr" dominant-baseline="text-before-edge">userName </text><text x="0" y="135" font-family="Virgil, Segoe UI Emoji" font-size="36px" fill="#1e1e1e" text-anchor="start" style="white-space: pre;" direction="ltr" dominant-baseline="text-before-edge"></text><text x="0" y="180" font-family="Virgil, Segoe UI Emoji" font-size="36px" fill="#1e1e1e" text-anchor="start" style="white-space: pre;" direction="ltr" dominant-baseline="text-before-edge">Email </text><text x="0" y="225" font-family="Virgil, Segoe UI Emoji" font-size="36px" fill="#1e1e1e" text-anchor="start" style="white-space: pre;" direction="ltr" dominant-baseline="text-before-edge"></text><text x="0" y="270" font-family="Virgil, Segoe UI Emoji" font-size="36px" fill="#1e1e1e" text-anchor="start" style="white-space: pre;" direction="ltr" dominant-baseline="text-before-edge">password (hashed and salted)</text><text x="0" y="315" font-family="Virgil, Segoe UI Emoji" font-size="36px" fill="#1e1e1e" text-anchor="start" style="white-space: pre;" direction="ltr" dominant-baseline="text-before-edge"></text><text x="0" y="360" font-family="Virgil, Segoe UI Emoji" font-size="36px" fill="#1e1e1e" text-anchor="start" style="white-space: pre;" direction="ltr" dominant-baseline="text-before-edge">role (Admin, Visitor )</text><text x="0" y="405" font-family="Virgil, Segoe UI Emoji" font-size="36px" fill="#1e1e1e" text-anchor="start" style="white-space: pre;" direction="ltr" dominant-baseline="text-before-edge"></text><text x="0" y="450" font-family="Virgil, Segoe UI Emoji" font-size="36px" fill="#1e1e1e" text-anchor="start" style="white-space: pre;" direction="ltr" dominant-baseline="text-before-edge"></text></g><g stroke-linecap="round"><g transform="translate(763.2132078771843 1719.9998474121094) rotate(0 460 366.6667175292969)"><path d="M0 0 C153.33 122.22, 766.67 611.11, 920 733.33 M0 0 C153.33 122.22, 766.67 611.11, 920 733.33" stroke="#1e1e1e" stroke-width="1" fill="none"></path></g><g transform="translate(763.2132078771843 1719.9998474121094) rotate(0 460 366.6667175292969)"><path d="M891.56 723.79 C898.09 725.98, 904.61 728.17, 920 733.33 M891.56 723.79 C898.21 726.02, 904.86 728.25, 920 733.33" stroke="#1e1e1e" stroke-width="1" fill="none"></path></g><g transform="translate(763.2132078771843 1719.9998474121094) rotate(0 460 366.6667175292969)"><path d="M904.35 707.74 C907.94 713.61, 911.53 719.49, 920 733.33 M904.35 707.74 C908.01 713.72, 911.67 719.7, 920 733.33" stroke="#1e1e1e" stroke-width="1" fill="none"></path></g></g><mask></mask><g transform="translate(728.2130552892937 1803.3331298828125) rotate(0 4.877998352050781 22.5)"><text x="0" y="0" font-family="Virgil, Segoe UI Emoji" font-size="36px" fill="#1e1e1e" text-anchor="start" style="white-space: pre;" direction="ltr" dominant-baseline="text-before-edge">1</text></g><g stroke-linecap="round" transform="translate(1511.5463377599967 2586.666717529297) rotate(0 343.33335876464844 541.6667175292964)"><path d="M32 0 M32 0 C235.5 0, 439 0, 654.67 0 M32 0 C194.94 0, 357.89 0, 654.67 0 M654.67 0 C676 0, 686.67 10.67, 686.67 32 M654.67 0 C676 0, 686.67 10.67, 686.67 32 M686.67 32 C686.67 348.48, 686.67 664.96, 686.67 1051.33 M686.67 32 C686.67 374.51, 686.67 717.03, 686.67 1051.33 M686.67 1051.33 C686.67 1072.67, 676 1083.33, 654.67 1083.33 M686.67 1051.33 C686.67 1072.67, 676 1083.33, 654.67 1083.33 M654.67 1083.33 C495.38 1083.33, 336.09 1083.33, 32 1083.33 M654.67 1083.33 C522.8 1083.33, 390.92 1083.33, 32 1083.33 M32 1083.33 C10.67 1083.33, 0 1072.67, 0 1051.33 M32 1083.33 C10.67 1083.33, 0 1072.67, 0 1051.33 M0 1051.33 C0 774.58, 0 497.83, 0 32 M0 1051.33 C0 788.24, 0 525.14, 0 32 M0 32 C0 10.67, 10.67 0, 32 0 M0 32 C0 10.67, 10.67 0, 32 0" stroke="#1e1e1e" stroke-width="1" fill="none"></path></g><g transform="translate(1901.5464903478874 2739.9998474121094) rotate(0 57.473968505859375 22.5)"><text x="0" y="0" font-family="Virgil, Segoe UI Emoji" font-size="36px" fill="#1e1e1e" text-anchor="start" style="white-space: pre;" direction="ltr" dominant-baseline="text-before-edge">article</text></g><g transform="translate(1568.2130552892936 2939.9998474121085) rotate(0 144.77394104003906 337.5)"><text x="0" y="0" font-family="Virgil, Segoe UI Emoji" font-size="36px" fill="#1e1e1e" text-anchor="start" style="white-space: pre;" direction="ltr" dominant-baseline="text-before-edge">id - primary key </text><text x="0" y="45" font-family="Virgil, Segoe UI Emoji" font-size="36px" fill="#1e1e1e" text-anchor="start" style="white-space: pre;" direction="ltr" dominant-baseline="text-before-edge"></text><text x="0" y="90" font-family="Virgil, Segoe UI Emoji" font-size="36px" fill="#1e1e1e" text-anchor="start" style="white-space: pre;" direction="ltr" dominant-baseline="text-before-edge">title </text><text x="0" y="135" font-family="Virgil, Segoe UI Emoji" font-size="36px" fill="#1e1e1e" text-anchor="start" style="white-space: pre;" direction="ltr" dominant-baseline="text-before-edge"></text><text x="0" y="180" font-family="Virgil, Segoe UI Emoji" font-size="36px" fill="#1e1e1e" text-anchor="start" style="white-space: pre;" direction="ltr" dominant-baseline="text-before-edge">body </text><text x="0" y="225" font-family="Virgil, Segoe UI Emoji" font-size="36px" fill="#1e1e1e" text-anchor="start" style="white-space: pre;" direction="ltr" dominant-baseline="text-before-edge"></text><text x="0" y="270" font-family="Virgil, Segoe UI Emoji" font-size="36px" fill="#1e1e1e" text-anchor="start" style="white-space: pre;" direction="ltr" dominant-baseline="text-before-edge">create_at </text><text x="0" y="315" font-family="Virgil, Segoe UI Emoji" font-size="36px" fill="#1e1e1e" text-anchor="start" style="white-space: pre;" direction="ltr" dominant-baseline="text-before-edge"></text><text x="0" y="360" font-family="Virgil, Segoe UI Emoji" font-size="36px" fill="#1e1e1e" text-anchor="start" style="white-space: pre;" direction="ltr" dominant-baseline="text-before-edge">update_at </text><text x="0" y="405" font-family="Virgil, Segoe UI Emoji" font-size="36px" fill="#1e1e1e" text-anchor="start" style="white-space: pre;" direction="ltr" dominant-baseline="text-before-edge"></text><text x="0" y="450" font-family="Virgil, Segoe UI Emoji" font-size="36px" fill="#1e1e1e" text-anchor="start" style="white-space: pre;" direction="ltr" dominant-baseline="text-before-edge">user_id</text><text x="0" y="495" font-family="Virgil, Segoe UI Emoji" font-size="36px" fill="#1e1e1e" text-anchor="start" style="white-space: pre;" direction="ltr" dominant-baseline="text-before-edge"></text><text x="0" y="540" font-family="Virgil, Segoe UI Emoji" font-size="36px" fill="#1e1e1e" text-anchor="start" style="white-space: pre;" direction="ltr" dominant-baseline="text-before-edge">tags</text><text x="0" y="585" font-family="Virgil, Segoe UI Emoji" font-size="36px" fill="#1e1e1e" text-anchor="start" style="white-space: pre;" direction="ltr" dominant-baseline="text-before-edge"></text><text x="0" y="630" font-family="Virgil, Segoe UI Emoji" font-size="36px" fill="#1e1e1e" text-anchor="start" style="white-space: pre;" direction="ltr" dominant-baseline="text-before-edge">published</text></g><g transform="translate(1521.5464903478874 2489.9998474121094) rotate(0 9.287994384765625 22.5)"><text x="0" y="0" font-family="Virgil, Segoe UI Emoji" font-size="36px" fill="#1e1e1e" text-anchor="start" style="white-space: pre;" direction="ltr" dominant-baseline="text-before-edge">*</text></g><g stroke-linecap="round"><g transform="translate(471.5461851721062 1293.3329772949219) rotate(0 590 -206.66667938232422)"><path d="M0 0 C196.67 -68.89, 983.33 -344.44, 1180 -413.33 M0 0 C196.67 -68.89, 983.33 -344.44, 1180 -413.33" stroke="#1e1e1e" stroke-width="1" fill="none"></path></g><g transform="translate(471.5461851721062 1293.3329772949219) rotate(0 590 -206.66667938232422)"><path d="M1156.79 -394.33 C1164.67 -400.79, 1172.56 -407.25, 1180 -413.33 M1156.79 -394.33 C1165.82 -401.72, 1174.85 -409.12, 1180 -413.33" stroke="#1e1e1e" stroke-width="1" fill="none"></path></g><g transform="translate(471.5461851721062 1293.3329772949219) rotate(0 590 -206.66667938232422)"><path d="M1150 -413.7 C1160.2 -413.57, 1170.39 -413.45, 1180 -413.33 M1150 -413.7 C1161.67 -413.56, 1173.34 -413.41, 1180 -413.33" stroke="#1e1e1e" stroke-width="1" fill="none"></path></g></g><mask></mask><g transform="translate(634.8795439367547 1289.9996948242188) rotate(0 4.877998352050781 22.5)"><text x="0" y="0" font-family="Virgil, Segoe UI Emoji" font-size="36px" fill="#1e1e1e" text-anchor="start" style="white-space: pre;" direction="ltr" dominant-baseline="text-before-edge">1</text></g><g transform="translate(1631.546185172106 956.666259765625) rotate(0 9.287994384765625 22.5)"><text x="0" y="0" font-family="Virgil, Segoe UI Emoji" font-size="36px" fill="#1e1e1e" text-anchor="start" style="white-space: pre;" direction="ltr" dominant-baseline="text-before-edge">*</text></g><g stroke-linecap="round" transform="translate(1761.5460325842155 10) rotate(0 310 488.3332061767578)"><path d="M32 0 M32 0 C163.27 0, 294.53 0, 588 0 M32 0 C222.14 0, 412.29 0, 588 0 M588 0 C609.33 0, 620 10.67, 620 32 M588 0 C609.33 0, 620 10.67, 620 32 M620 32 C620 304.83, 620 577.67, 620 944.67 M620 32 C620 276.38, 620 520.77, 620 944.67 M620 944.67 C620 966, 609.33 976.67, 588 976.67 M620 944.67 C620 966, 609.33 976.67, 588 976.67 M588 976.67 C392.62 976.67, 197.25 976.67, 32 976.67 M588 976.67 C470.68 976.67, 353.35 976.67, 32 976.67 M32 976.67 C10.67 976.67, 0 966, 0 944.67 M32 976.67 C10.67 976.67, 0 966, 0 944.67 M0 944.67 C0 613.68, 0 282.7, 0 32 M0 944.67 C0 751.59, 0 558.52, 0 32 M0 32 C0 10.67, 10.67 0, 32 0 M0 32 C0 10.67, 10.67 0, 32 0" stroke="#1e1e1e" stroke-width="1" fill="none"></path></g><g transform="translate(2101.5460325842155 166.66641235351562) rotate(0 81.77397918701172 45)"><text x="0" y="0" font-family="Virgil, Segoe UI Emoji" font-size="36px" fill="#1e1e1e" text-anchor="start" style="white-space: pre;" direction="ltr" dominant-baseline="text-before-edge">Comment </text><text x="0" y="45" font-family="Virgil, Segoe UI Emoji" font-size="36px" fill="#1e1e1e" text-anchor="start" style="white-space: pre;" direction="ltr" dominant-baseline="text-before-edge"></text></g><g transform="translate(1848.212673819567 296.6664123535156) rotate(0 135.77394104003906 247.5)"><text x="0" y="0" font-family="Virgil, Segoe UI Emoji" font-size="36px" fill="#1e1e1e" text-anchor="start" style="white-space: pre;" direction="ltr" dominant-baseline="text-before-edge">id -primary key </text><text x="0" y="45" font-family="Virgil, Segoe UI Emoji" font-size="36px" fill="#1e1e1e" text-anchor="start" style="white-space: pre;" direction="ltr" dominant-baseline="text-before-edge"></text><text x="0" y="90" font-family="Virgil, Segoe UI Emoji" font-size="36px" fill="#1e1e1e" text-anchor="start" style="white-space: pre;" direction="ltr" dominant-baseline="text-before-edge">body </text><text x="0" y="135" font-family="Virgil, Segoe UI Emoji" font-size="36px" fill="#1e1e1e" text-anchor="start" style="white-space: pre;" direction="ltr" dominant-baseline="text-before-edge"></text><text x="0" y="180" font-family="Virgil, Segoe UI Emoji" font-size="36px" fill="#1e1e1e" text-anchor="start" style="white-space: pre;" direction="ltr" dominant-baseline="text-before-edge">create_at </text><text x="0" y="225" font-family="Virgil, Segoe UI Emoji" font-size="36px" fill="#1e1e1e" text-anchor="start" style="white-space: pre;" direction="ltr" dominant-baseline="text-before-edge"></text><text x="0" y="270" font-family="Virgil, Segoe UI Emoji" font-size="36px" fill="#1e1e1e" text-anchor="start" style="white-space: pre;" direction="ltr" dominant-baseline="text-before-edge">update_at </text><text x="0" y="315" font-family="Virgil, Segoe UI Emoji" font-size="36px" fill="#1e1e1e" text-anchor="start" style="white-space: pre;" direction="ltr" dominant-baseline="text-before-edge"></text><text x="0" y="360" font-family="Virgil, Segoe UI Emoji" font-size="36px" fill="#1e1e1e" text-anchor="start" style="white-space: pre;" direction="ltr" dominant-baseline="text-before-edge">user_id </text><text x="0" y="405" font-family="Virgil, Segoe UI Emoji" font-size="36px" fill="#1e1e1e" text-anchor="start" style="white-space: pre;" direction="ltr" dominant-baseline="text-before-edge"></text><text x="0" y="450" font-family="Virgil, Segoe UI Emoji" font-size="36px" fill="#1e1e1e" text-anchor="start" style="white-space: pre;" direction="ltr" dominant-baseline="text-before-edge">article_id </text></g><g stroke-linecap="round"><g transform="translate(2058.2129027014025 2488.3331298828116) rotate(0 8.333282470703125 -694.9999999999995)"><path d="M0 0 C2.78 -231.67, 13.89 -1158.33, 16.67 -1390 M0 0 C2.78 -231.67, 13.89 -1158.33, 16.67 -1390" stroke="#1e1e1e" stroke-width="1" fill="none"></path></g><g transform="translate(2058.2129027014025 2488.3331298828116) rotate(0 8.333282470703125 -694.9999999999995)"><path d="M26.59 -1361.69 C23.66 -1370.06, 20.72 -1378.43, 16.67 -1390 M26.59 -1361.69 C24.06 -1368.9, 21.54 -1376.11, 16.67 -1390" stroke="#1e1e1e" stroke-width="1" fill="none"></path></g><g transform="translate(2058.2129027014025 2488.3331298828116) rotate(0 8.333282470703125 -694.9999999999995)"><path d="M6.07 -1361.93 C9.2 -1370.23, 12.34 -1378.53, 16.67 -1390 M6.07 -1361.93 C8.77 -1369.08, 11.47 -1376.23, 16.67 -1390" stroke="#1e1e1e" stroke-width="1" fill="none"></path></g></g><mask></mask><g transform="translate(2128.2129027014025 2478.3331298828116) rotate(0 4.877998352050781 22.5)"><text x="0" y="0" font-family="Virgil, Segoe UI Emoji" font-size="36px" fill="#1e1e1e" text-anchor="start" style="white-space: pre;" direction="ltr" dominant-baseline="text-before-edge">1</text></g><g transform="translate(2194.879467642809 1114.9996948242188) rotate(0 9.287994384765625 22.5)"><text x="0" y="0" font-family="Virgil, Segoe UI Emoji" font-size="36px" fill="#1e1e1e" text-anchor="start" style="white-space: pre;" direction="ltr" dominant-baseline="text-before-edge">*</text></g><g transform="translate(1288.2122923498396 1515.0003051757808) rotate(0 130.1399688720703 22.5)"><text x="0" y="0" font-family="Virgil, Segoe UI Emoji" font-size="36px" fill="#1e1e1e" text-anchor="start" style="white-space: pre;" direction="ltr" dominant-baseline="text-before-edge">Blog Post API</text></g><g stroke-linecap="round" transform="translate(3148.212902701402 2575.0006103515616) rotate(0 271.66656494140625 191.66656494140625)"><path d="M32 0 M32 0 C144.01 0, 256.02 0, 511.33 0 M32 0 C183.71 0, 335.41 0, 511.33 0 M511.33 0 C532.67 0, 543.33 10.67, 543.33 32 M511.33 0 C532.67 0, 543.33 10.67, 543.33 32 M543.33 32 C543.33 143.38, 543.33 254.77, 543.33 351.33 M543.33 32 C543.33 116.85, 543.33 201.7, 543.33 351.33 M543.33 351.33 C543.33 372.67, 532.67 383.33, 511.33 383.33 M543.33 351.33 C543.33 372.67, 532.67 383.33, 511.33 383.33 M511.33 383.33 C371.78 383.33, 232.23 383.33, 32 383.33 M511.33 383.33 C328.82 383.33, 146.31 383.33, 32 383.33 M32 383.33 C10.67 383.33, 0 372.67, 0 351.33 M32 383.33 C10.67 383.33, 0 372.67, 0 351.33 M0 351.33 C0 246.67, 0 142.01, 0 32 M0 351.33 C0 265.88, 0 180.43, 0 32 M0 32 C0 10.67, 10.67 0, 32 0 M0 32 C0 10.67, 10.67 0, 32 0" stroke="#1e1e1e" stroke-width="1" fill="none"></path></g><g transform="translate(3408.212597525621 2633.333740234374) rotate(0 60.425994873046875 67.5)"><text x="0" y="0" font-family="Virgil, Segoe UI Emoji" font-size="36px" fill="#1e1e1e" text-anchor="start" style="white-space: pre;" direction="ltr" dominant-baseline="text-before-edge">TAGS </text><text x="0" y="45" font-family="Virgil, Segoe UI Emoji" font-size="36px" fill="#1e1e1e" text-anchor="start" style="white-space: pre;" direction="ltr" dominant-baseline="text-before-edge"></text><text x="0" y="90" font-family="Virgil, Segoe UI Emoji" font-size="36px" fill="#1e1e1e" text-anchor="start" style="white-space: pre;" direction="ltr" dominant-baseline="text-before-edge"></text></g><g transform="translate(3238.2125975256213 2770.0003051757803) rotate(0 144.77394104003884 45)"><text x="0" y="0" font-family="Virgil, Segoe UI Emoji" font-size="36px" fill="#1e1e1e" text-anchor="start" style="white-space: pre;" direction="ltr" dominant-baseline="text-before-edge">id - primary key </text><text x="0" y="45" font-family="Virgil, Segoe UI Emoji" font-size="36px" fill="#1e1e1e" text-anchor="start" style="white-space: pre;" direction="ltr" dominant-baseline="text-before-edge">Name - </text></g><g stroke-linecap="round"><g transform="translate(2268.2125975256213 2943.333740234374) rotate(0 395 -91.66671752929688)"><path d="M0 0 C131.67 -30.56, 658.33 -152.78, 790 -183.33 M0 0 C131.67 -30.56, 658.33 -152.78, 790 -183.33" stroke="#1e1e1e" stroke-width="1" fill="none"></path></g><g transform="translate(2268.2125975256213 2943.333740234374) rotate(0 395 -91.66671752929688)"><path d="M764.86 -166.97 C769.95 -170.28, 775.05 -173.6, 790 -183.33 M764.86 -166.97 C774.37 -173.16, 783.88 -179.35, 790 -183.33" stroke="#1e1e1e" stroke-width="1" fill="none"></path></g><g transform="translate(2268.2125975256213 2943.333740234374) rotate(0 395 -91.66671752929688)"><path d="M760.22 -186.96 C766.26 -186.22, 772.29 -185.49, 790 -183.33 M760.22 -186.96 C771.48 -185.59, 782.75 -184.22, 790 -183.33" stroke="#1e1e1e" stroke-width="1" fill="none"></path></g></g><mask></mask><g stroke-linecap="round"><g transform="translate(3054.8791624670275 2763.333740234374) rotate(0 -401.66664123535156 93.33328247070312)"><path d="M0 0 C-133.89 31.11, -669.44 155.56, -803.33 186.67 M0 0 C-133.89 31.11, -669.44 155.56, -803.33 186.67" stroke="#1e1e1e" stroke-width="1" fill="none"></path></g><g transform="translate(3054.8791624670275 2763.333740234374) rotate(0 -401.66664123535156 93.33328247070312)"><path d="M-778.2 170.29 C-786.95 175.99, -795.7 181.7, -803.33 186.67 M-778.2 170.29 C-785.35 174.95, -792.5 179.61, -803.33 186.67" stroke="#1e1e1e" stroke-width="1" fill="none"></path></g><g transform="translate(3054.8791624670275 2763.333740234374) rotate(0 -401.66664123535156 93.33328247070312)"><path d="M-773.55 190.28 C-783.92 189.02, -794.29 187.76, -803.33 186.67 M-773.55 190.28 C-782.02 189.25, -790.49 188.22, -803.33 186.67" stroke="#1e1e1e" stroke-width="1" fill="none"></path></g></g><mask></mask><g transform="translate(3068.2125975256213 2830.0003051757803) rotate(0 9.287994384765625 22.5)"><text x="0" y="0" font-family="Virgil, Segoe UI Emoji" font-size="36px" fill="#1e1e1e" text-anchor="start" style="white-space: pre;" direction="ltr" dominant-baseline="text-before-edge">*</text></g><g transform="translate(2288.2125975256213 3040.0003051757803) rotate(0 9.287994384765625 22.5)"><text x="0" y="0" font-family="Virgil, Segoe UI Emoji" font-size="36px" fill="#1e1e1e" text-anchor="start" style="white-space: pre;" direction="ltr" dominant-baseline="text-before-edge">*</text></g></svg>